<svg id="visual" viewBox="0 0 900 450" width="900" height="450" xmlns="http://www.w3.org/2000/svg" xmlns:xlink="http://www.w3.org/1999/xlink" version="1.1"><rect x="0" y="0" width="900" height="450" fill="#ffffff"></rect><path d="M0 82L21.5 83.5C43 85 86 88 128.8 82C171.7 76 214.3 61 257.2 58.7C300 56.3 343 66.7 385.8 85C428.7 103.3 471.3 129.7 514.2 145.3C557 161 600 166 642.8 153.5C685.7 141 728.3 111 771.2 92C814 73 857 65 878.5 61L900 57L900 451L878.5 451C857 451 814 451 771.2 451C728.3 451 685.7 451 642.8 451C600 451 557 451 514.2 451C471.3 451 428.7 451 385.8 451C343 451 300 451 257.2 451C214.3 451 171.7 451 128.8 451C86 451 43 451 21.5 451L0 451Z" fill="#ffffff"></path><path d="M0 276L21.5 267.3C43 258.7 86 241.3 128.8 218.3C171.7 195.3 214.3 166.7 257.2 166C300 165.3 343 192.7 385.8 201.7C428.7 210.7 471.3 201.3 514.2 203.7C557 206 600 220 642.8 231C685.7 242 728.3 250 771.2 259.5C814 269 857 280 878.5 285.5L900 291L900 451L878.5 451C857 451 814 451 771.2 451C728.3 451 685.7 451 642.8 451C600 451 557 451 514.2 451C471.3 451 428.7 451 385.8 451C343 451 300 451 257.2 451C214.3 451 171.7 451 128.8 451C86 451 43 451 21.5 451L0 451Z" fill="#f1a0bb"></path><path d="M0 261L21.5 277.2C43 293.3 86 325.7 128.8 326.3C171.7 327 214.3 296 257.2 299C300 302 343 339 385.8 340.5C428.7 342 471.3 308 514.2 288.2C557 268.3 600 262.7 642.8 259.5C685.7 256.3 728.3 255.7 771.2 281.5C814 307.3 857 359.7 878.5 385.8L900 412L900 451L878.5 451C857 451 814 451 771.2 451C728.3 451 685.7 451 642.8 451C600 451 557 451 514.2 451C471.3 451 428.7 451 385.8 451C343 451 300 451 257.2 451C214.3 451 171.7 451 128.8 451C86 451 43 451 21.5 451L0 451Z" fill="#d4307b"></path></svg>