<svg id="visual" viewBox="0 0 900 300" width="900" height="300" xmlns="http://www.w3.org/2000/svg" xmlns:xlink="http://www.w3.org/1999/xlink" version="1.1"><rect x="0" y="0" width="900" height="300" fill="#fff"></rect><path d="M0 92L50 111.3C100 130.7 200 169.3 300 191C400 212.7 500 217.3 600 209.7C700 202 800 182 850 172L900 162L900 0L850 0C800 0 700 0 600 0C500 0 400 0 300 0C200 0 100 0 50 0L0 0Z" fill="#d26f98"></path><path d="M0 87L50 77.5C100 68 200 49 300 61.8C400 74.7 500 119.3 600 141.3C700 163.3 800 162.7 850 162.3L900 162L900 0L850 0C800 0 700 0 600 0C500 0 400 0 300 0C200 0 100 0 50 0L0 0Z" fill="#d4307b"></path></svg>